<svg id="Layer_1" data-name="Layer 1" xmlns="http://www.w3.org/2000/svg" viewBox="0 0 333.5 120"><defs><style>.cls-1{fill:#ee6565;}.cls-1,.cls-3{stroke:#fff;stroke-miterlimit:10;}.cls-2{fill:#fff;}.cls-3{fill:#414042;}</style></defs><title>Artboard 1</title><g id="Manager"><g id="Layer_5" data-name="Layer 5"><rect class="cls-1" width="333.5" height="120"/></g><path class="cls-2" d="M75.53,56.63a14.5,14.5,0,0,1,.9-5,13.75,13.75,0,0,1,2.63-4.45A13.28,13.28,0,0,1,83.29,44a12.81,12.81,0,0,1,5.65-1.21,12,12,0,0,1,6.47,1.68,10.9,10.9,0,0,1,4.06,4.37L96,51.17a7.84,7.84,0,0,0-1.4-2.11,6.86,6.86,0,0,0-1.79-1.36,7.75,7.75,0,0,0-2-.72,10.19,10.19,0,0,0-2-.21,8,8,0,0,0-3.82.88A8.48,8.48,0,0,0,82.22,50a10.35,10.35,0,0,0-1.68,3.24A11.88,11.88,0,0,0,80,56.78a11.25,11.25,0,0,0,.66,3.86,10.44,10.44,0,0,0,1.85,3.24,9.09,9.09,0,0,0,2.83,2.24,7.75,7.75,0,0,0,3.59.84A9,9,0,0,0,91,66.71a7.76,7.76,0,0,0,2.07-.82,8.29,8.29,0,0,0,1.83-1.42,7.11,7.11,0,0,0,1.38-2.07l3.63,2.07A8.49,8.49,0,0,1,98,67.22a12,12,0,0,1-2.73,2,14,14,0,0,1-3.22,1.25,13.56,13.56,0,0,1-3.33.43,11.47,11.47,0,0,1-5.34-1.25,14,14,0,0,1-4.17-3.26,15,15,0,0,1-2.73-4.56A14.48,14.48,0,0,1,75.53,56.63Z"/><path class="cls-2" d="M108.84,71.06a7.59,7.59,0,0,1-2.75-.49,6.62,6.62,0,0,1-2.18-1.35,6.27,6.27,0,0,1-1.44-2,6.11,6.11,0,0,1-.53-2.54,5.47,5.47,0,0,1,.62-2.61,6.1,6.1,0,0,1,1.77-2,8.61,8.61,0,0,1,2.73-1.33,12.23,12.23,0,0,1,3.49-.47,16,16,0,0,1,2.85.25,14.33,14.33,0,0,1,2.53.68v-1.4a4.73,4.73,0,0,0-1.29-3.53A5.06,5.06,0,0,0,110.94,53a9,9,0,0,0-3.22.6,16.29,16.29,0,0,0-3.26,1.74l-1.33-2.73a14.46,14.46,0,0,1,8.19-2.65,9.34,9.34,0,0,1,6.55,2.15,7.94,7.94,0,0,1,2.34,6.16V65.6q0,1.37,1.13,1.4v3.67q-.62.12-1.07.16c-.3,0-.59,0-.88,0a2.76,2.76,0,0,1-1.93-.62,2.67,2.67,0,0,1-.84-1.6l-.12-1.29a9.1,9.1,0,0,1-3.37,2.75A9.91,9.91,0,0,1,108.84,71.06ZM110,67.9a7.69,7.69,0,0,0,2.94-.57,5.07,5.07,0,0,0,2.16-1.58,2,2,0,0,0,.82-1.48V61.58a13,13,0,0,0-2.32-.66,12.78,12.78,0,0,0-2.4-.23,6.56,6.56,0,0,0-3.76,1A3,3,0,0,0,106,64.31a3.32,3.32,0,0,0,1.13,2.55A4.11,4.11,0,0,0,110,67.9Z"/><path class="cls-2" d="M136.88,54a9.61,9.61,0,0,0-4.43,1.15,6.07,6.07,0,0,0-2.75,3.06V70.67h-4.29V50.27h4v4.56a9.33,9.33,0,0,1,2.75-3.37,6.67,6.67,0,0,1,3.65-1.38h.64a2.36,2.36,0,0,1,.45,0Z"/><path class="cls-2" d="M147.29,71.06a8.75,8.75,0,0,1-3.82-.84,9.54,9.54,0,0,1-3-2.28,10.56,10.56,0,0,1-2-3.37,12.3,12.3,0,0,1,0-8.19A10.68,10.68,0,0,1,140.29,53a9.24,9.24,0,0,1,2.89-2.28,8.41,8.41,0,0,1,8,.35,8.68,8.68,0,0,1,2.92,3V42.2h4.29V65.6a1.69,1.69,0,0,0,.25,1.05,1.22,1.22,0,0,0,.92.35v3.67q-.66.12-1.07.16c-.27,0-.5,0-.68,0a3.24,3.24,0,0,1-2.11-.66,2.34,2.34,0,0,1-.9-1.72L154.7,67a8.13,8.13,0,0,1-3.08,3A8.71,8.71,0,0,1,147.29,71.06Zm1.05-3.67a5.89,5.89,0,0,0,1.87-.31,6.63,6.63,0,0,0,1.72-.86,6,6,0,0,0,1.35-1.29,4.62,4.62,0,0,0,.8-1.6V58a6.39,6.39,0,0,0-1-1.79,7.1,7.1,0,0,0-1.46-1.4,6.69,6.69,0,0,0-1.74-.9,5.72,5.72,0,0,0-1.85-.31,4.85,4.85,0,0,0-2.36.58,6.06,6.06,0,0,0-1.85,1.56A7.65,7.65,0,0,0,142.59,58a7.55,7.55,0,0,0-.45,2.57,7.2,7.2,0,0,0,.49,2.65A6.91,6.91,0,0,0,144,65.36a6.58,6.58,0,0,0,2,1.48A5.36,5.36,0,0,0,148.34,67.39Z"/><path class="cls-2" d="M162.89,56.63a14.81,14.81,0,0,1,.88-5,13.8,13.8,0,0,1,2.55-4.43A13.1,13.1,0,0,1,170.46,44,12.29,12.29,0,0,1,176,42.82a11.55,11.55,0,0,1,6.34,1.68,10.21,10.21,0,0,1,3.88,4.37l-2.15,1.33a8.21,8.21,0,0,0-1.62-2.3,9,9,0,0,0-2-1.52,8.71,8.71,0,0,0-2.26-.84,10.84,10.84,0,0,0-2.3-.25,9.26,9.26,0,0,0-4.41,1,10.14,10.14,0,0,0-3.22,2.65,11.56,11.56,0,0,0-2,3.69,13.39,13.39,0,0,0-.66,4.15,12.31,12.31,0,0,0,.8,4.41,12.48,12.48,0,0,0,2.18,3.72,10.48,10.48,0,0,0,3.28,2.57,9,9,0,0,0,4.11,1,10.32,10.32,0,0,0,2.4-.29,9.27,9.27,0,0,0,2.38-.94,10,10,0,0,0,2.13-1.6,8.26,8.26,0,0,0,1.64-2.32l2.26,1.17a8.48,8.48,0,0,1-1.87,2.75,12.31,12.31,0,0,1-2.69,2,13.41,13.41,0,0,1-3.14,1.25,13,13,0,0,1-3.26.43,11.07,11.07,0,0,1-5.23-1.25,13.68,13.68,0,0,1-4.1-3.26,15.09,15.09,0,0,1-2.67-4.56A14.74,14.74,0,0,1,162.89,56.63Z"/><path class="cls-2" d="M199.59,71.06a9.64,9.64,0,0,1-4.06-.84,9.94,9.94,0,0,1-3.18-2.28,10.33,10.33,0,0,1-2.09-3.35,11,11,0,0,1-.74-4,10.88,10.88,0,0,1,.76-4.06,10.62,10.62,0,0,1,2.11-3.35,10.2,10.2,0,0,1,3.18-2.3,9.35,9.35,0,0,1,4-.86,9.48,9.48,0,0,1,4,.86,10.14,10.14,0,0,1,3.2,2.3,10.64,10.64,0,0,1,2.11,3.35,10.88,10.88,0,0,1,.76,4.06,11,11,0,0,1-.74,4,10.33,10.33,0,0,1-2.09,3.35,9.88,9.88,0,0,1-3.2,2.28A9.77,9.77,0,0,1,199.59,71.06Zm-7.37-10.45a8.48,8.48,0,0,0,.58,3.18,8.62,8.62,0,0,0,1.58,2.57,7.11,7.11,0,0,0,2.34,1.74,6.73,6.73,0,0,0,2.87.62,6.55,6.55,0,0,0,2.87-.64,7.6,7.6,0,0,0,2.36-1.75,8.37,8.37,0,0,0,1.6-2.59,9,9,0,0,0,0-6.38,8.33,8.33,0,0,0-1.6-2.61A7.6,7.6,0,0,0,202.46,53a6.56,6.56,0,0,0-2.87-.64,6.43,6.43,0,0,0-2.85.64,7.53,7.53,0,0,0-2.34,1.77,8.55,8.55,0,0,0-1.6,2.63A8.79,8.79,0,0,0,192.22,60.61Z"/><path class="cls-2" d="M231.22,70.67h-2.65V59.32a9.9,9.9,0,0,0-1.07-5.27,3.66,3.66,0,0,0-3.29-1.64,6.77,6.77,0,0,0-2.34.43,7.93,7.93,0,0,0-2.17,1.21,9.26,9.26,0,0,0-1.77,1.85,7.25,7.25,0,0,0-1.13,2.32V70.67h-2.65V50.35h2.42V55a9.54,9.54,0,0,1,3.57-3.59A9.78,9.78,0,0,1,225.17,50a6,6,0,0,1,2.85.62,4.86,4.86,0,0,1,1.87,1.75,8.1,8.1,0,0,1,1,2.77,19.54,19.54,0,0,1,.31,3.63Z"/><path class="cls-2" d="M246.43,69.69l-.68.31q-.45.2-1,.39a11.77,11.77,0,0,1-1.33.35,7.59,7.59,0,0,1-1.56.16,5.67,5.67,0,0,1-1.64-.23,3.82,3.82,0,0,1-1.36-.72,3.54,3.54,0,0,1-.94-1.23,4,4,0,0,1-.35-1.72V52.45h-2.81V50.35h2.81V43.48h2.65v6.86h4.68v2.11h-4.68V66.26a2.11,2.11,0,0,0,.8,1.66,2.74,2.74,0,0,0,1.66.53,5,5,0,0,0,2-.37,8.56,8.56,0,0,0,1.09-.53Z"/><path class="cls-2" d="M259.88,52.69a8.35,8.35,0,0,0-4.68,1.48A7.47,7.47,0,0,0,252.39,58V70.67h-2.65V50.35h2.5v4.88a9.25,9.25,0,0,1,3-3.67,7.06,7.06,0,0,1,4.09-1.33,2.75,2.75,0,0,1,.51,0Z"/><path class="cls-2" d="M271.08,71.06a9.64,9.64,0,0,1-4.06-.84,9.94,9.94,0,0,1-3.18-2.28,10.33,10.33,0,0,1-2.09-3.35,11,11,0,0,1-.74-4,10.88,10.88,0,0,1,.76-4.06,10.62,10.62,0,0,1,2.11-3.35,10.2,10.2,0,0,1,3.18-2.3,9.35,9.35,0,0,1,4-.86,9.48,9.48,0,0,1,4,.86,10.14,10.14,0,0,1,3.2,2.3,10.64,10.64,0,0,1,2.11,3.35,10.88,10.88,0,0,1,.76,4.06,11,11,0,0,1-.74,4,10.33,10.33,0,0,1-2.09,3.35,9.88,9.88,0,0,1-3.2,2.28A9.77,9.77,0,0,1,271.08,71.06Zm-7.37-10.45a8.48,8.48,0,0,0,.58,3.18,8.62,8.62,0,0,0,1.58,2.57,7.11,7.11,0,0,0,2.34,1.74,6.73,6.73,0,0,0,2.87.62,6.55,6.55,0,0,0,2.87-.64,7.6,7.6,0,0,0,2.36-1.75,8.37,8.37,0,0,0,1.6-2.59,9,9,0,0,0,0-6.38,8.33,8.33,0,0,0-1.6-2.61A7.6,7.6,0,0,0,273.94,53a6.56,6.56,0,0,0-2.87-.64,6.43,6.43,0,0,0-2.85.64,7.53,7.53,0,0,0-2.34,1.77,8.55,8.55,0,0,0-1.6,2.63A8.79,8.79,0,0,0,263.71,60.61Z"/><path class="cls-2" d="M285.74,42.2h2.65V66.07a2.44,2.44,0,0,0,.62,1.77,2.33,2.33,0,0,0,1.75.64,5.27,5.27,0,0,0,1-.12,6.63,6.63,0,0,0,1.09-.31l.47,2.15a8.79,8.79,0,0,1-1.81.51,10.6,10.6,0,0,1-1.85.2,3.94,3.94,0,0,1-2.89-1A3.88,3.88,0,0,1,285.74,67Z"/><g id="Layer_3" data-name="Layer 3"><rect class="cls-3" x="44.83" y="41.06" width="24.08" height="32.11" rx="1.75" ry="1.75"/><rect class="cls-1" x="50.29" y="41.06" width="13.16" height="4.46"/></g></g></svg>